inDegrees=no
num_controls=7
num_derivatives=13
num_iterations=97
num_multipliers=7
num_parameters=0
num_slacks=7
num_states=26
objective=0.542810
objective_accelerations=0.064969
objective_balance=0.003335
objective_effort=0.048093
objective_height=0.417245
objective_ligament=0.009169
solver_duration=1045.598826
status=Solve_Succeeded
success=true
DataType=double
version=3
OpenSimVersion=4.5
endheader
time	/jointset/ground_pelvis/pelvis_tilt/value	/jointset/ground_pelvis/pelvis_tx/value	/jointset/ground_pelvis/pelvis_ty/value	/jointset/hip_r/hip_flexion_r/value	/jointset/hip_r/hip_adduction_r/value	/jointset/hip_r/hip_rotation_r/value	/jointset/back/lumbar_extension/value	/jointset/patellofemoral_r/patellar_flexion_r/value	/jointset/knee_r/knee_flexion_r/value	/jointset/knee_r/knee_adduction_r/value	/jointset/knee_r/knee_rotation_r/value	/jointset/ankle_r/ankle_angle_r/value	/jointset/subtalar_r/subtalar_angle_r/value	/jointset/ground_pelvis/pelvis_tilt/speed	/jointset/ground_pelvis/pelvis_tx/speed	/jointset/ground_pelvis/pelvis_ty/speed	/jointset/hip_r/hip_flexion_r/speed	/jointset/hip_r/hip_adduction_r/speed	/jointset/hip_r/hip_rotation_r/speed	/jointset/back/lumbar_extension/speed	/jointset/patellofemoral_r/patellar_flexion_r/speed	/jointset/knee_r/knee_flexion_r/speed	/jointset/knee_r/knee_adduction_r/speed	/jointset/knee_r/knee_rotation_r/speed	/jointset/ankle_r/ankle_angle_r/speed	/jointset/subtalar_r/subtalar_angle_r/speed	/forceset/tau_hip_flexion_r	/forceset/tau_hip_adduction_r	/forceset/tau_hip_rotation_r	/forceset/tau_knee_flexion_r	/forceset/tau_ankle_angle_r	/forceset/tau_subtalar_angle_r	/forceset/tau_lumbar_extension	lambda_cid13_p0	lambda_cid14_p0	lambda_cid14_p1	lambda_cid14_p2	lambda_cid14_p3	lambda_cid14_p4	lambda_cid14_p5	/jointset/ground_pelvis/pelvis_tilt/accel	/jointset/ground_pelvis/pelvis_tx/accel	/jointset/ground_pelvis/pelvis_ty/accel	/jointset/hip_r/hip_flexion_r/accel	/jointset/hip_r/hip_adduction_r/accel	/jointset/hip_r/hip_rotation_r/accel	/jointset/back/lumbar_extension/accel	/jointset/patellofemoral_r/patellar_flexion_r/accel	/jointset/knee_r/knee_flexion_r/accel	/jointset/knee_r/knee_adduction_r/accel	/jointset/knee_r/knee_rotation_r/accel	/jointset/ankle_r/ankle_angle_r/accel	/jointset/subtalar_r/subtalar_angle_r/accel	gamma_cid13_p0	gamma_cid14_p0	gamma_cid14_p1	gamma_cid14_p2	gamma_cid14_p3	gamma_cid14_p4	gamma_cid14_p5
1	-0.3513568937398104	-0.02303534114281488	0.5964762566972592	1.675432619284137	-0.2315323929046984	-0.09049405128017662	-0.436321928016587	1.55008688902006	1.550086889020679	-0.1618046570819314	0.1707167307122836	0.43633159435406	0.1124489268242572	-0.001515470582257964	0.002462593282452847	0.01566980665348067	-0.03998458282199061	0.002822152359927788	-0.01600946914433501	-0.0003771922076063082	-0.04475145370023651	-0.04475145370023578	-0.008197844182956588	-0.0007558331928492724	-0.003198353338647432	0.003909096384934974	-0.3270790839504247	0.02019248193223989	-0.002277161472408549	-0.5341029572433973	0.02070413838802944	0.005739141550492543	0.3303956624128349	-0.04253745554901968	-44.58921389255757	-8.455429070526883	5.395418073186425	19.72090718778098	-829.6707487300972	56.01653361503913	1.238721889723838	0.007134328238691963	2.232872936622002	-6.467199865786943	0.2076569378488549	-0.1759659358216279	-0.0180635350919844	-6.162689703791576	-6.162689703791782	1.217902395669511	0.1350295921716747	-1.100871044764821	-0.0846336231005729	8.189636049440321e-09	1.243257453478475e-08	3.922479349550957e-08	5.527691260961384e-08	-1.712354675609352e-09	-1.133455906095046e-08	1.001168453072324e-07
1.01	-0.3513106430510555	-0.02301034068965636	0.5967445070511129	1.674710067480105	-0.2314938048624691	-0.09065934287282368	-0.4363258586308281	1.54933143016603	1.549331430165916	-0.1618220967564761	0.1707155230235149	0.4362444641139356	0.1124836306292409	0.01077015076499859	0.002542226422948753	0.03798180030219724	-0.1045350014184785	0.004895646770787328	-0.0170497844444571	-0.0003994724726752967	-0.1063548130516123	-0.1063548130516163	0.004713583314073017	0.0005143579479992065	-0.01423891663830516	0.003027039003691724	-0.3271008903112489	0.0202963273789074	-0.002204341482461545	-0.5339943241307945	0.02077843210857254	0.005683891735696552	0.3304657546989638	-0.0425509686996774	-44.56962921552591	-8.485513667353498	5.411087284048956	19.65573214880515	-829.7147419600274	55.95596047141513	1.224169649130449	0.009084891361804572	2.230588497159305	-6.450340716165807	0.2072419784190279	-0.06819377430816566	0.00710845300257531	-6.161336841115681	-6.161336841116277	1.328309002101955	0.1230592866552359	-1.107331576148419	-0.09065560661818188	1.690425276261344e-08	2.91787104434242e-08	9.366333715272122e-08	1.307600238859643e-07	-1.128675179957978e-08	-2.243577761116649e-08	2.351225582425434e-07
1.02	-0.3511413986704475	-0.02298440248821156	0.5972359225250863	1.67334173591819	-0.2314344726189882	-0.09083506350791447	-0.4363297283026281	1.547959502160425	1.547959502159581	-0.1617103129409762	0.1707270263284743	0.4360465917200783	0.1125093810982156	0.02308326778841251	0.002650142939706824	0.06030283067743101	-0.1691405343984102	0.006970992610229946	-0.01809527763260608	-0.0003650037290626851	-0.1680452840151924	-0.1680452840152005	0.01764685382639486	0.001786365553399828	-0.02534678408124947	0.002118429183169403	-0.3271226966720771	0.02040017282556834	-0.002131521492488311	-0.5338856910181904	0.02085272582911436	0.005628641920888327	0.3305358469850885	-0.04257415481242456	-44.55770660585092	-8.51132807065442	5.419665319343933	19.61157364018258	-829.874554857962	55.93631491428984	1.244221024955297	0.01279100349114115	2.234680281925443	-6.478222742475701	0.208027223565467	-0.1770015134270075	-0.00671373335539747	-6.180112026232451	-6.180112026232513	1.222270998727955	0.1353928850821039	-1.114331873422104	-0.08994411095637833	2.529857435505263e-08	4.612164258504869e-08	1.464410811843253e-07	2.050729156650105e-07	-2.182964950876956e-08	-3.205107441682149e-08	3.647265711077206e-07
1.03	-0.3508490787238278	-0.02295713247328052	0.5979504584901653	1.671327467318997	-0.231354417307523	-0.0910213500230279	-0.4363321135601369	1.545970500407779	1.545970500406368	-0.1614691883470603	0.1707512399496394	0.4357373598826686	0.1125258683961348	0.0353653947919999	0.002819769878445347	0.08259246448227295	-0.2336829859310863	0.009036237491456678	-0.01916447702918046	-1.630584843852174e-05	-0.2297431077289437	-0.2297431077289492	0.03057889440502605	0.003054105143749249	-0.0365051723409257	0.001169767136004908	-0.3273779570419622	0.02048926235513919	-0.001969990252798235	-0.5331998445938809	0.02075588828783264	0.005590693944630628	0.3309016676047576	-0.04259860885651901	-44.57859642919067	-8.526848983661001	5.416865640439167	19.45668857057736	-829.799891001229	55.88087071999944	1.217921590937223	0.02142847341818657	2.224311862925049	-6.43771496884073	0.2052362654146701	-0.07222393395429065	0.07002284081329056	-6.16283051494931	-6.162830514948883	1.328784598371977	0.1222033854310856	-1.117429147585233	-0.09865260357722375	3.368962762993332e-08	6.306658285149957e-08	1.992018782809743e-07	2.793738664287781e-07	-3.238242987699218e-08	-4.165120875569524e-08	4.942754645844271e-07
1.04	-0.3504343948965964	-0.02292769020209152	0.5988875321799247	1.668668682482447	-0.2312538169182421	-0.09121839748834552	-0.4363281395806281	1.543364877823795	1.543364877821815	-0.1610987205451715	0.1707880787445897	0.4353163767935902	0.112532604003186	0.04755604391066016	0.003084594191295554	0.104810375613575	-0.298043781870849	0.01108000817322095	-0.02024746767302047	0.00090684371386428	-0.2913694502828097	-0.2913694502828116	0.04351549542130968	0.004311400310887595	-0.04769703441439638	0.0001680910096109701	-0.32763321741182	0.02057835188470641	-0.001808459013080866	-0.53251399816957	0.02065905074654583	0.005552745968364167	0.3312674882244535	-0.04263283254979807	-44.60728338485524	-8.538107347370389	5.406957710530935	19.32260538017224	-829.8437175712014	55.86619364311687	1.225925447969868	0.03183047831347927	2.220335747217466	-6.441891623893001	0.2037323836729725	-0.1797597628801358	0.1081766029804883	-6.165815794255416	-6.165815794255217	1.22318308625844	0.1333040004398889	-1.121026636180989	-0.1005469268022657	4.097331716080873e-08	7.813858071901245e-08	2.463227271384935e-07	3.452683720296849e-07	-4.249539433227104e-08	-4.99695615196147e-08	6.073449013289194e-07
1.05	-0.3498984584274474	-0.02289503673256691	0.6000462836526742	1.665367634052996	-0.2311329171397691	-0.0914265106954522	-0.4363114095800789	1.540143607494999	1.54014360749347	-0.1605990569119862	0.1708374122706478	0.4347833189974273	0.1125290130562018	0.05959401421131421	0.003470743069045363	0.1269136142708223	-0.3620903464376641	0.0130929635006569	-0.02137881872124051	0.002602991892437896	-0.3528467287707378	-0.3528467287707394	0.05641467932656868	0.00554981752614003	-0.05891888689646657	-0.0009003839516153971	-0.3278756194676765	0.02064265984746494	-0.001558150345888738	-0.5313559900327702	0.02059246072465157	0.005507130200312617	0.3317051151932316	-0.04267065895446929	-44.59947938627428	-8.540865111998681	5.389479557719263	19.0591452051842	-829.5324307127116	55.81591615914738	1.187164687162351	0.04569297487642247	2.201360491965478	-6.374688795137683	0.1990853949629046	-0.08033582751269688	0.2249092492504479	-6.133010587922004	-6.133010587922121	1.322888635774816	0.1184003666438811	-1.123416687380115	-0.1120189410493184	4.822240157468397e-08	9.315204913655854e-08	2.9326732761354e-07	4.109001762192525e-07	-5.25946145402704e-08	-5.824785860931685e-08	7.198993550505303e-07
1.06	-0.3492432558820817	-0.0228577845977907	0.6014252760253932	1.661428389993469	-0.2309920861504841	-0.09164604002338748	-0.4362728030329415	1.536308699038952	1.536308699037872	-0.1599704809211277	0.1708989879257712	0.4341379122498107	0.1125143331275519	0.07140925915393788	0.004004327241616015	0.1488585556075548	-0.4256829078869562	0.01506625033545481	-0.0225306918382512	0.005282153029195217	-0.4140970757330867	-0.4140970757330901	0.06929796695643675	0.006759826124430789	-0.07016682470494055	-0.002049705323501568	-0.3281180215235086	0.02070696781021894	-0.001307841678661547	-0.5301979818959686	0.02052587070275225	0.00546151443225066	0.3321427421620336	-0.04271836064896704	-44.59962472002254	-8.539457079880439	5.364988636922344	18.81569552309114	-829.3431138935373	55.80554426788361	1.181380376363789	0.06131753727764518	2.188676283114508	-6.351091000388435	0.1957986851453633	-0.1838641766382659	0.304779194617106	-6.120429489139589	-6.120429489139786	1.220003831180256	0.1276222770475538	-1.12624370146175	-0.1167162089342277	5.399019723233994e-08	1.05092980911915e-07	3.306069905513696e-07	4.646774085881693e-07	-6.055322027190736e-08	-6.521394706005606e-08	8.068969187427773e-07
1.07	-0.3484708821685833	-0.02281442408115904	0.603022846386162	1.65685555836004	-0.2308317387380433	-0.09187742457803116	-0.4362025959637514	1.531862550041905	1.531862550040306	-0.1592133926825905	0.1709724972350632	0.4333798142473159	0.1124876983725344	0.08303849010612806	0.00469594239631565	0.1706210183190626	-0.4887987199165737	0.01699485035414582	-0.02375134558344223	0.00891623284671849	-0.4750818166179178	-0.4750818166179208	0.08211480749582208	0.007932289321722139	-0.08146501911342709	-0.003296715173682292	-0.3280316729283122	0.02076065785885198	-0.0009682964166911692	-0.5287397516196551	0.0206422065198563	0.005379560673195196	0.3323261628764466	-0.04277478128991428	-44.51462657946485	-8.537950598273012	5.339372172603074	18.5011070534378	-828.7010606979587	55.75977898816101	1.149666692740821	0.0772946607667489	2.164842011528373	-6.279101156789946	0.1902039643714594	-0.09189252688493486	0.4162681806974907	-6.07987234566405	-6.079872345663866	1.311775821798812	0.1107378968102237	-1.133441152887233	-0.1314953016908007	5.967920093487785e-08	1.168704798871549e-07	3.674357525563684e-07	5.178240786262005e-07	-6.839796353139737e-08	-7.211023717893553e-08	8.925350733909091e-07
